<?xml version="1.0" encoding="UTF-8"?>
<!DOCTYPE svg PUBLIC "-//W3C//DTD SVG 1.0//EN" "http://www.w3.org/TR/2001/REC-SVG-20010904/DTD/svg10.dtd">
<!-- Creator: CorelDRAW 2020 (64-Bit Evaluation Version) -->
<svg xmlns="http://www.w3.org/2000/svg" xml:space="preserve" width="40.7717in" height="11.5541in" version="1.0" style="shape-rendering:geometricPrecision; text-rendering:geometricPrecision; image-rendering:optimizeQuality; fill-rule:evenodd; clip-rule:evenodd"
viewBox="0 0 45905.93 13009.04"
 xmlns:xlink="http://www.w3.org/1999/xlink"
 xmlns:xodm="http://www.corel.com/coreldraw/odm/2003">
 <defs>
  <style type="text/css">
   <![CDATA[
    .fil0 {fill:#00A39E}
    .fil3 {fill:#01A4A0}
    .fil2 {fill:#02A5A1}
    .fil1 {fill:#F9AE3E}
    .fil4 {fill:#FDF7E7}
   ]]>
  </style>
 </defs>
 <g id="Layer_x0020_1">
  <metadata id="CorelCorpID_0Corel-Layer"/>
  <g id="_2000652871200">
   <path class="fil0" d="M3787.17 11280.36l-1623.07 0 0 -2245.25 1433.71 0c460.73,0 1022.58,92.42 1250.71,453.51 193.9,306.9 152.57,855.64 31.66,1180.52 -55.04,147.9 -141.86,226.18 -247.61,320.46 -194.67,173.53 -566.21,290.76 -845.39,290.76zm-622.18 -3678.97l-1000.89 0 0 -2164.1c0,-111.36 50.73,-53.87 297.11,-53.84 626.29,0.08 1396.73,-77.26 1868.21,160.83 548.17,276.82 525.27,1356.67 155.27,1726.67 -260.12,260.11 -800.54,330.43 -1319.69,330.43zm-3164.99 -3760.12l0 8872.81c0,93.26 20.01,104.74 27.05,189.35l3651.91 0c440.81,0.01 780.12,-31.97 1139.33,-105.02 681.27,-138.55 1459.3,-587.02 1858.49,-1198.31 413.16,-632.69 594.75,-1560 283.36,-2275.41 -43.84,-100.71 -98.93,-214.57 -158.44,-301.44 -275.62,-402.27 -764.76,-668.26 -1226.42,-802.43 -107.15,-31.14 -107.44,0.2 -165.05,-78.42 142.08,-11.83 433.66,-189.69 549.96,-261.58 792.24,-489.83 1104.2,-1376.7 868.04,-2292.57 -45.21,-175.31 -115.66,-397.19 -191.46,-538.92 -512.48,-958.36 -1848.87,-1289.23 -3011.92,-1289.23l-3543.71 0c-62.33,0 -81.16,18.83 -81.16,81.16z"/>
   <path class="fil0" d="M10901.64 11307.41c-1051.68,0 -1638.57,-757.43 -2028.84,-757.43 -233.3,0 -316.41,-21.63 -520.91,209.47 -47.53,53.71 -71.54,94.84 -109.96,160.56l-532.33 874.32c204.05,304.73 958.87,695.32 1317.61,846.49 1172.26,493.97 2855.5,562.09 3915.08,-239.55l469.35 -423.34c503.06,-542.68 901.72,-1645.53 650.12,-2667.42 -89.91,-365.15 -360.19,-866.33 -640.06,-1091.22 -1245.14,-1000.54 -3358.64,-951.96 -3358.64,-1889.3 0,-273.98 22.3,-447.19 207.17,-658.47 63.38,-72.43 43.88,-58.18 127.2,-116.27 455.09,-317.29 1298.71,-220.02 1776.08,16.86 356.02,176.65 914.57,621.97 1248.62,140.42l563.36 -1059.71c0,-75.92 -45.47,-82.72 -95.22,-121.18 -244.34,-188.81 -416.15,-330.33 -712.51,-450.69 -724.2,-294.13 -1120.94,-429.02 -2059.69,-429.02 -1786.3,0 -3192.86,1299.6 -3058.65,2895.63 51.13,608.02 99.75,979.51 504.02,1498.5 850.48,1091.82 2651.85,975.14 3345.74,1658.74 175.76,173.15 216.14,466.47 183.29,764.25 -29.25,265.03 -145.98,492.88 -367.25,634.02 -190.03,121.22 -523.34,204.38 -823.56,204.38z"/>
   <path class="fil0" d="M15338.04 3787.17l0 8710.49c0,83.43 -13.48,61.02 -13.36,108.2 0.1,47.3 13.36,25 13.36,108.21 0,111.95 -72.62,243.46 81.16,243.46l2055.89 0c62.32,0 81.16,-18.83 81.16,-81.16l0 -7006.27c0,-377.65 -170.29,-882.83 -329.96,-1157.87 -360.27,-620.6 -909.05,-968.06 -1620.05,-1112.31 -403.42,-81.85 -268.19,-20.71 -268.19,187.23z"/>
   <path class="fil1" d="M17772.66 216.4c0,590.36 -104.57,1068.76 -440.05,1534.69 -145.01,201.41 -248.12,302.53 -418.43,474.27 -193.11,194.73 -425.94,256.43 -521.14,398.6 460.14,10.25 1007.07,399.38 1318.76,710.09 457.05,455.6 544.42,750.79 683.03,1345.81l81.16 0c68.68,-294.77 569.46,-729.36 816.7,-887.53 337.06,-215.61 778.39,-383.88 1320.35,-383.88 556.36,0 603.65,166.09 239.3,-293.41 -393.61,-496.41 -576.9,-1462.82 -362.62,-2102.21 32.26,-96.24 67.33,-175.53 107.7,-271.02 43.19,-102.18 86.48,-158.29 96.77,-281.94 -173.95,3.88 -168.16,66.87 -350.77,136.15 -728.37,276.32 -1638.94,103.04 -2277.15,-375.66 -50.23,-37.67 -91.7,-63.91 -137.51,-105.96 -70.81,-64.98 -58.84,-88.43 -156.1,-114.4 -46.22,96.3 0,92.98 0,216.4z"/>
   <path class="fil2" d="M21343.42 9170.37c-463.7,0 -351.67,243.62 -351.67,-865.64 531.45,0 1109.1,-101.29 1109.1,459.87 0,183.79 -104.92,297.4 -234.52,360.61 -208.67,101.75 -299.72,45.16 -522.92,45.16zm0 -1136.15c-458.02,0 -351.67,148.95 -351.67,-865.64 308.14,0 769.93,-56.11 941.48,140.58 68.03,77.99 307.67,725.06 -589.81,725.06zm-730.38 -1109.1l0 2569.87c534.91,0 1207.31,76.68 1580.95,-177.38 332.88,-226.36 370.71,-757.48 144.75,-980.26 -28.96,-28.55 -119.75,-97.66 -152.98,-117.53 -65.19,-38.95 -141.33,-59.03 -220.16,-77.4 68.04,-92.87 43.18,-25.95 150.79,-92.67 402.09,-249.26 568.27,-1205.79 -772.98,-1205.79l-649.23 0c-62.33,0 -81.15,18.82 -81.15,81.15z"/>
   <path class="fil2" d="M21722.14 10306.52l0 2623.96 351.66 0c0,-312.34 46.58,-1767.19 -27.05,-1920.63 97.64,8.12 89.25,11.94 141.35,75.06 24.52,29.7 63.85,88 90.69,125.71l1309.88 1719.86c68.93,0 121.81,3.34 188.63,7.15 70.29,4 108.93,37.11 108.93,-61.25l0 -2569.87 -243.46 -13.37c-35.62,0.08 -38.31,7.55 -108.2,13.37l0 1947.69c-78.61,-52.64 -141.89,-167.09 -210.16,-249.71 -79.01,-95.62 -134.61,-173.81 -211.08,-275.84l-819.09 -1074.49c-41.3,-52.8 -65.53,-77.18 -108.48,-134.98 -72.5,-97.57 -190.33,-318.74 -463.62,-212.66z"/>
   <path class="fil3" d="M25374.05 12632.92l-420.7 -7.89c-65.52,-4.88 -93.27,9.69 -93.27,-73.26l0 -1866.54c0,-71.91 -30.52,-76.21 173.69,-72.88 110.32,1.8 129.74,19.27 259.25,20.34 159.45,1.31 337,-35.39 511.62,27.7 495.88,179.17 654.6,701.81 571.3,1161.92 -94.56,522.3 -390.41,810.61 -1001.89,810.61zm-892.69 297.56c265.52,0 505.35,-14.22 754.62,18.51 301.7,39.62 761.31,-58.51 1042.63,-250.1 846.94,-576.77 631.32,-2392.37 -688.15,-2392.37l-1109.1 0 0 2623.96z"/>
   <path class="fil2" d="M25455.21 9494.98l324.61 0 0 -1974.74c75.24,27.24 165.44,178.3 216.4,243.46l1231.94 1608.45c116.79,163.96 110.89,122.84 364.09,122.84 65.34,-280.45 27.06,-2134.22 27.06,-2569.87 0,-115.42 -103.82,-81.15 -351.67,-81.15l1.06 1705.28c-19.24,231.33 -33.71,-7.85 -55.16,188.3l-54.11 0c-23.77,-89.04 -110.82,-170.77 -166.03,-239.73l-916.31 -1193.68c-389.59,-509.14 -268.07,-460.16 -621.88,-460.16l0 2651.02z"/>
   <path class="fil2" d="M27484.04 11740.23c0,-361.2 -14.77,-561.06 238.28,-870.83 391.06,-478.74 1574.16,-338.24 1574.16,627.37 0,356.64 0.38,559.63 -242.19,866.9 -409.56,518.79 -1570.24,292.65 -1570.24,-623.44zm-405.77 -135.26c0,365.86 161,765.7 344.29,954.16 338.25,347.75 587.31,398.4 1089.43,398.4 294.66,0 694.2,-193.98 865.91,-405.5 556.2,-685.15 485.33,-2180.66 -978.88,-2296.65 -337.48,-26.73 -699.77,147.08 -935.38,382.38 -235.25,234.94 -385.36,609.84 -385.36,967.2z"/>
   <path class="fil2" d="M31947.5 10441.77c0,328.1 38.15,204.4 7.42,537.97 -22.71,246.52 3.32,366.1 7.13,496.01l-0.52 243.4c8.02,123.03 41.02,366.2 -14.03,480.95 -119.52,-31.91 -117.1,-113.22 -197.35,-208.42l-1135.88 -1461.04c-189.49,-252.76 -111.05,-224.11 -398.06,-224.11 -124.54,0 -54.11,77.66 -54.11,162.31l0 2461.66c409.05,0 324.62,233.36 324.62,-838.58l-0.67 -947.47c28.59,-140.69 85.3,-94.09 147.35,-13.86l1263.55 1634.05c60.19,84.43 106.71,228.44 402.21,165.86l0 -2623.96c-230.84,0 -351.66,-87.37 -351.66,135.25z"/>
   <path class="fil2" d="M38683.25 8115.37c-593.26,0 -459.87,169.88 -459.87,-865.64 0,-129.19 181.11,-81.16 513.98,-81.16 217.68,0 459.87,170.17 459.87,378.71l0 162.31c0,220.16 -291.31,405.78 -513.98,405.78zm-838.58 -1190.26l0 2488.72c0,117.83 114.62,81.16 378.71,81.16l0 -1082.05c496.4,0 321.27,-66.28 838.62,622.16l243.53 351.59c97.49,152.62 246.82,108.3 486.83,108.3 -11.86,-142.49 -441.32,-637.69 -562.9,-816.71 -39.2,-57.71 -60.49,-84.53 -101.18,-142.29 -47.56,-67.51 -48.7,-97.1 -120.41,-123.05l0 -108.2c620.03,-51.6 1079.22,-1460.76 -486.92,-1460.76 -389.88,0 -676.28,-59.99 -676.28,81.15z"/>
   <path class="fil2" d="M43768.88 6925.11l0 2488.72c0,117.83 114.63,81.16 378.72,81.16l-0.88 -433.71c6.02,-201.44 61.25,-250.46 10.71,-553.14 -16.51,-98.95 -40.55,-203.42 71.32,-203.42l1298.46 0 0 1109.1c0,117.83 114.63,81.16 378.72,81.16l0 -2651.02c-422.17,0 -384.29,-36.23 -380.3,214.83l1.58 948.37c-335.46,78.15 -1022.39,0 -1379.61,0 0,-154.34 27.05,-187.1 27.05,-351.67 0,-172.22 -37.39,-247.93 -15.63,-394.36 21.58,-145.19 -11.42,-249.82 -11.42,-417.18 -264.09,0 -378.72,-36.68 -378.72,81.15z"/>
   <path class="fil2" d="M28241.48 6925.11l0 2488.72c0,117.83 114.62,81.16 378.71,81.16 0,-241.35 65.17,-539.85 6.9,-927.62 -35.31,-235 -11.43,-262.63 128.36,-262.63 255.4,0 264.35,165.94 561.84,466.11 72.36,73 91.46,116.07 161.77,189.9 497.98,522.89 270.12,534.25 872.42,534.25 -44.23,-165.64 -1096.69,-1307.33 -1163.2,-1406.67 114.71,-76.81 800.01,-878.35 967.74,-1061.1 73.07,-79.62 104.15,-61.09 114.32,-183.25 -412.19,0 -350.87,-33.76 -547.71,182.67l-340.94 389.44c-60.92,76.1 -467.07,529.62 -529.12,555.78 -141.61,59.7 -104.53,-4.81 -232.36,-18.79 98.51,-205.3 0,-865.6 0,-1109.1 -264.09,0 -378.71,-36.68 -378.71,81.15z"/>
   <path class="fil2" d="M38575.05 11929.59c7.71,-92.7 278.03,-757.11 332.53,-884.77 38.05,-89.12 78.75,-213.08 100.28,-305.49l54.1 0c12.54,150.67 138.1,427.16 193.28,564.15l212.49 572c-197.51,71.5 9.52,54.87 -405.75,54.12 -162.3,-0.29 -324.63,-0.01 -486.94,-0.01zm243.46 -1623.07l-632.21 1613.05c-35.73,101.42 -64,150.07 -94.44,230.18 -63.47,167.13 -111.05,303 -183.88,465.35 -172.43,384.37 -127.07,329.32 29.67,327.51 245.44,-2.85 228.32,15.06 324.28,-244.07 59.52,-160.72 140.22,-309.88 177.84,-471.38l1163.21 0c177.78,336 189.3,685.17 355.38,712.05 72.62,11.76 209.85,10.85 293.85,-8.72 -3.26,-146.15 -446.76,-1171.61 -510.13,-1329.35l-264.34 -655.39c-53.09,-150.22 -206.34,-555.48 -280.52,-666.27 -135.37,0 -208.95,27.06 -378.72,27.06z"/>
   <path class="fil2" d="M42254.02 7276.78c17.77,213.58 422.39,1092.01 432.82,1217.3l-919.75 0c26.11,-112.07 68.83,-197.62 108.49,-297.29l299.54 -782.49c32.77,-99.81 4.02,-82.67 78.9,-137.52zm-1244.36 2218.21c442.63,0 353.2,17.41 478.86,-305.63 55.33,-142.23 105.58,-275.27 170.37,-397.71l1163.2 0c32.03,137.49 86.56,256.92 135.25,378.72 142.36,356.13 91.66,324.62 432.83,324.62 153.82,0 -63.58,-388.53 -158.45,-626.05l-759.13 -1891.88c-66.3,-156.76 16.24,-133.09 -380.88,-133.09 -95.19,0 -96.91,106.71 -170.09,289.79 -47.94,119.97 -84.68,211.74 -131.36,328.52 -87.24,218.31 -177.6,455.15 -266.91,679.88 -68.98,173.58 -510.09,1190.67 -513.7,1352.84z"/>
   <path class="fil2" d="M35815.83 8494.08l381.44 -998.17c84.83,-135.69 60.33,27.45 78.43,-137.98l54.11 0c10.67,128.29 142.51,442.39 192.91,564.52l212.85 544.58c-251.33,58.56 -623.15,27.05 -919.74,27.05zm-757.44 1000.9c295.19,0 341.29,33.76 404.01,-109.97l218.17 -593.37 1190.25 0c32.77,140.69 89.19,265.72 139.3,401.73 125.24,340.02 88.63,301.6 428.78,301.6 172.97,0 -53.14,-306.84 -165.48,-619.01 -42.58,-118.32 -85.69,-229.52 -135.67,-351.26 -23.78,-57.94 -51.97,-111.46 -74.01,-169.45 -25.81,-67.86 -35.43,-114.37 -61.23,-182.23l-417.85 -1015.87c-135.24,-356.95 -40.24,-313.2 -444.23,-313.2 -98,0 -102.73,121.01 -166.35,293.52 -37.91,102.77 -88.33,221.52 -131.22,328.65 -91.03,227.4 -179.26,447.45 -270.24,676.56 -43.07,108.47 -90.19,224.89 -131.68,328.19l-265.14 654.61c-47.98,106.98 -114.49,237.49 -117.43,369.49z"/>
   <path class="fil2" d="M23453.41 8494.08c73.81,-316.79 414.81,-1000.91 432.82,-1217.3 62.87,46.06 350.79,830.49 381.89,916.58 92.6,256.33 209.17,306.17 -137.4,301.58 -225.34,-2.97 -451.84,-0.86 -677.31,-0.86zm-757.43 1000.9c452.99,0 341.03,41.61 486.65,-324.89 48.9,-123.09 103.15,-239.44 135.53,-378.44l1163.2 0c114.47,216.33 184.01,488.72 297.57,703.34l351.66 0c-9.78,-117.58 -186.45,-549.66 -242.76,-676.99 -97.03,-219.41 -174.51,-458.26 -270.74,-676.06 -24.8,-56.14 -34.59,-95.17 -58.35,-158.06l-332.28 -830.93c-154.21,-366.07 -38.37,-308.98 -394.34,-308.98 -160.6,0 -159.34,124.28 -274.28,429.05l-344.05 846.2c-92.02,229.06 -514.3,1217.41 -517.82,1375.77z"/>
   <path class="fil2" d="M34138.65 10306.52l-1217.31 0 0 2569.87c0,115.86 77.88,42.59 235.1,61.33 65.67,7.83 55.95,19.3 166.4,16.34l1221.58 -23.57 0 -297.56 -1163.2 0c-62.33,0 -81.16,-18.83 -81.16,-81.15l0 -784.49 946.8 0c146.29,0 57.56,-169.13 54.1,-324.61l-1000.9 0c0,-1064.33 -45.48,-811.53 216.41,-811.53l946.79 0c112.96,0 81.16,-93.88 81.16,-324.62 -95.17,0 -150.63,-15.8 -195.33,-18.25 -88.7,-4.87 -90.07,18.25 -210.44,18.25z"/>
   <path class="fil3" d="M31298.26 7547.29c0,966.26 1337.49,559.51 1250.11,1249.06 -42.55,335.77 -296.9,401.07 -573.83,401.07 -253.62,0 -397.7,-180.36 -568.08,-270.51 -544.9,288.33 204.4,595.13 649.23,595.13 495.3,0 865.64,-345.08 865.64,-838.59 0,-849.87 -1277.26,-597.98 -1263.12,-1159.76 7.81,-310.5 439.35,-520.8 867.91,-257.46 200.06,122.93 307.7,79.76 314.06,-205.86 -117.68,-31.42 -305.13,-243.46 -703.34,-243.46 -456.5,0 -838.59,293.92 -838.59,730.38z"/>
   <path class="fil3" d="M34923.13 11009.85c0,343.74 213.83,546.36 510.48,652.73 139.93,50.17 298.62,103.25 440.52,154.6 275.83,99.8 293.36,209.71 293.36,409.98 0,391.21 -348.34,405.77 -595.13,405.77 -275.13,0 -434.35,-243.46 -568.08,-243.46 -84.7,0 -162.31,148.96 -162.31,216.41 0,69.02 -27.85,16.62 113.22,130.25 499.82,402.57 1591.02,311.13 1591.02,-617.17 0,-884.06 -1244.36,-528.56 -1244.36,-1163.2 0,-256.52 201.04,-354.33 439.63,-364.74 324.92,-14.17 390.18,183.69 615.36,202.43 112.86,-168.53 236.11,-345.11 -275.05,-482.38 -454.5,-122.06 -945.76,25.03 -1094.71,411.08 -20.91,54.19 -63.95,230.94 -63.95,287.72z"/>
   <path class="fil3" d="M34003.39 8845.75l0 649.23c469.29,0 386.33,129.66 378.33,-838.99 -3.06,-370.41 43.41,-261.6 262.36,-657.36 56.05,-101.31 115.21,-183.18 175.95,-283.93 80.2,-133.03 501.48,-781.91 508.87,-870.74 -272.92,0 -350.68,-50.39 -466.41,128.71 -98.56,152.51 -633.22,1028.9 -642.69,1142.7 -94.69,-25.28 -108.7,-130.53 -241.96,-353.17l-452.2 -765.11c-110.87,-195.06 -132.2,-153.13 -469.05,-153.13 9.52,114.34 58,156.65 109.68,241.99l422.9 686.2c313.33,528.54 414.22,538.76 414.22,1073.6z"/>
   <path class="fil2" d="M20667.13 10306.52l-2.39 2464.22c4.09,268.51 102.62,159.74 164.7,159.74 202.23,0 205.57,125.38 218.58,-159.97 31,-680.22 24.89,-1204.87 24.89,-1895.92 0,-229.04 -27.05,-344.21 -27.05,-568.07 -206.07,-17.15 -160.97,-22.78 -378.72,0z"/>
   <path class="fil2" d="M37168.38 10306.52l-135.25 0 0 2623.96c489.96,0 378.71,293 378.71,-1163.2 0,-486.92 0,-973.84 0,-1460.76 -173.76,-40.48 -76.08,0 -243.46,0z"/>
   <path class="fil2" d="M40225.17 6925.11l0 2569.87 378.72 0 0 -2651.02 -297.56 0c-62.32,0 -81.16,18.82 -81.16,81.15z"/>
   <path class="fil4" d="M42605.68 8439.98l8.08 -8.07c-0.54,0.53 -10.77,5.38 -8.08,8.07z"/>
  </g>
 </g>
</svg>
